<?xml version="1.0" encoding="UTF-8"?>
<svg xmlns="http://www.w3.org/2000/svg" xmlns:xlink="http://www.w3.org/1999/xlink" width="54px" height="54px" viewBox="0 0 54 54" version="1.1">
<g id="surface1">
<path style=" stroke:none;fill-rule:nonzero;fill:rgb(0%,0%,0%);fill-opacity:1;" d="M 39.945312 9.339844 C 39.832031 9.402344 39.296875 9.707031 38.761719 10.015625 C 37.601562 10.6875 37.167969 10.933594 33.011719 13.300781 C 31.253906 14.300781 29.65625 15.207031 29.453125 15.320312 C 29.25 15.429688 28.171875 16.042969 27.058594 16.679688 L 25.03125 17.835938 L 24.699219 17.738281 C 23.96875 17.542969 22.875 17.753906 22.144531 18.242188 C 20.855469 19.085938 20.417969 20.402344 21.242188 20.945312 C 22.4375 21.742188 24.816406 20.914062 25.476562 19.480469 L 25.625 19.152344 L 27.089844 18.335938 C 28.503906 17.550781 29.421875 17.054688 30.980469 16.242188 C 36.054688 13.59375 40.796875 11.027344 41.054688 10.785156 C 41.507812 10.363281 41.386719 9.632812 40.816406 9.34375 C 40.519531 9.195312 40.214844 9.195312 39.945312 9.339844 Z M 39.945312 9.339844 "/>
<path style=" stroke:none;fill-rule:nonzero;fill:rgb(0%,0%,0%);fill-opacity:1;" d="M 25.445312 13.234375 C 22.269531 13.453125 19.042969 14.25 16.863281 15.355469 C 14.917969 16.34375 13.527344 17.6875 13.09375 19.011719 C 12.902344 19.597656 12.894531 20.367188 13.066406 20.933594 C 13.640625 22.792969 15.792969 24.472656 18.910156 25.496094 C 21.246094 26.273438 24.140625 26.683594 27.183594 26.683594 C 32.675781 26.679688 37.167969 25.277344 39.660156 22.785156 C 40.515625 21.933594 40.847656 21.332031 40.980469 20.398438 C 41.097656 19.617188 40.886719 18.761719 40.394531 18.015625 C 39.742188 17.011719 38.550781 16.042969 37.152344 15.378906 C 36.492188 15.0625 35.652344 14.75 35.464844 14.75 C 35.296875 14.75 33.917969 15.488281 33.902344 15.582031 C 33.902344 15.609375 34.023438 15.683594 34.175781 15.734375 C 37.339844 16.855469 39.175781 18.246094 39.449219 19.734375 C 39.507812 20.039062 39.503906 20.128906 39.425781 20.425781 C 38.960938 22.144531 35.84375 23.863281 31.871094 24.601562 C 28.691406 25.1875 25.417969 25.1875 22.203125 24.59375 C 18.511719 23.914062 15.417969 22.328125 14.664062 20.722656 C 14.550781 20.480469 14.527344 20.359375 14.527344 19.960938 C 14.527344 19.523438 14.542969 19.453125 14.714844 19.117188 C 14.945312 18.648438 15.703125 17.871094 16.375 17.417969 C 17.992188 16.328125 20.644531 15.417969 23.417969 15.007812 C 24.875 14.792969 25.535156 14.75 27.554688 14.746094 L 29.558594 14.734375 L 29.980469 14.484375 C 30.210938 14.355469 30.664062 14.089844 30.992188 13.910156 C 31.320312 13.726562 31.582031 13.5625 31.589844 13.546875 C 31.589844 13.53125 31.414062 13.488281 31.207031 13.453125 C 29.730469 13.226562 27.105469 13.125 25.445312 13.234375 Z M 25.445312 13.234375 "/>
<path style=" stroke:none;fill-rule:nonzero;fill:rgb(0%,0%,0%);fill-opacity:1;" d="M 12.816406 22.964844 L 12.816406 23.835938 L 13.050781 24.289062 L 13.289062 24.742188 L 13.289062 31.414062 L 13.109375 31.960938 C 12.863281 32.714844 12.792969 33.234375 12.832031 34.167969 C 12.871094 35.3125 13.121094 36.097656 13.714844 36.976562 C 14.21875 37.714844 15.246094 38.636719 16.242188 39.253906 C 18.785156 40.832031 22.527344 41.796875 26.5 41.90625 C 30.8125 42.023438 34.980469 41.023438 37.757812 39.199219 C 40.121094 37.640625 41.128906 35.933594 41.011719 33.65625 C 40.976562 32.9375 40.871094 32.367188 40.683594 31.914062 L 40.554688 31.585938 L 40.554688 24.707031 L 40.710938 24.46875 C 41.023438 24.003906 41.082031 23.757812 41.082031 22.886719 C 41.082031 22.449219 41.0625 22.09375 41.042969 22.09375 C 41.015625 22.09375 40.894531 22.257812 40.765625 22.449219 C 40.632812 22.644531 40.289062 23.050781 40 23.351562 C 38.027344 25.40625 34.472656 26.925781 30.535156 27.390625 C 30.167969 27.433594 29.65625 27.496094 29.398438 27.523438 C 28.222656 27.660156 27.515625 28 27.074219 28.65625 C 26.761719 29.121094 26.671875 29.488281 26.640625 30.496094 L 26.613281 31.386719 L 25.292969 31.367188 L 23.96875 31.351562 L 23.953125 29.421875 L 23.941406 27.492188 L 23.503906 27.425781 C 18.65625 26.703125 14.644531 24.796875 13.097656 22.46875 C 12.960938 22.265625 12.839844 22.09375 12.835938 22.09375 C 12.824219 22.09375 12.816406 22.484375 12.816406 22.964844 Z M 16.085938 27.105469 C 16.722656 27.484375 17.65625 27.976562 18.128906 28.175781 L 18.457031 28.3125 L 18.457031 32.363281 C 18.457031 34.589844 18.472656 36.503906 18.492188 36.617188 C 18.527344 36.808594 18.546875 36.835938 18.875 36.984375 C 20.203125 37.582031 21.574219 37.980469 23.203125 38.230469 C 23.566406 38.289062 23.878906 38.335938 23.90625 38.335938 C 23.925781 38.335938 23.941406 37.378906 23.941406 36.203125 L 23.941406 34.066406 L 25.40625 34.066406 C 27.710938 34.070312 30.023438 34.152344 30.558594 34.25 C 31.476562 34.410156 31.953125 34.636719 31.820312 34.847656 C 31.667969 35.085938 31.59375 35.09375 29.019531 35.109375 L 26.578125 35.125 L 26.578125 38.496094 L 27.863281 38.496094 C 31.265625 38.496094 33.882812 37.816406 34.921875 36.65625 C 35.464844 36.050781 35.667969 35.402344 35.636719 34.410156 C 35.613281 33.707031 35.492188 33.265625 35.226562 32.886719 C 34.695312 32.113281 33.964844 31.703125 32.117188 31.144531 C 31.003906 30.800781 30.5 30.613281 30.433594 30.492188 C 30.355469 30.355469 30.480469 30.167969 30.6875 30.109375 C 30.796875 30.078125 31.777344 30.058594 33.085938 30.058594 L 35.289062 30.058594 L 35.253906 29.1875 L 35.214844 28.316406 L 35.417969 28.234375 C 36.234375 27.90625 37.472656 27.253906 38.332031 26.710938 L 38.945312 26.324219 L 38.972656 30.101562 C 38.988281 32.179688 38.980469 34.054688 38.960938 34.273438 C 38.914062 34.761719 38.734375 35.078125 38.179688 35.664062 C 37.097656 36.808594 35.40625 37.746094 33.222656 38.40625 C 30.09375 39.355469 25.539062 39.464844 21.925781 38.6875 C 19.542969 38.167969 17.527344 37.257812 16.136719 36.054688 C 15.621094 35.613281 15.265625 35.179688 15.0625 34.75 L 14.898438 34.410156 L 14.867188 26.308594 L 15.199219 26.542969 C 15.382812 26.667969 15.777344 26.921875 16.085938 27.105469 Z M 16.085938 27.105469 "/>
</g>
</svg>
